<?xml version="1.0" standalone="no"?>
<!DOCTYPE svg PUBLIC "-//W3C//DTD SVG 20010904//EN"
 "http://www.w3.org/TR/2001/REC-SVG-20010904/DTD/svg10.dtd">
<svg version="1.0" xmlns="http://www.w3.org/2000/svg"
 width="96.000000pt" height="96.000000pt" viewBox="0 0 96.000000 96.000000"
 preserveAspectRatio="xMidYMid meet">

<g transform="translate(0.000000,96.000000) scale(0.100000,-0.100000)"
fill="#000000" stroke="none">
<path d="M85 870 c-19 -21 -15 -25 370 -410 l389 -389 23 21 24 22 -93 93
c-75 76 -90 95 -78 103 8 5 18 10 22 10 17 0 158 144 158 160 0 27 -138 151
-203 183 -114 56 -212 69 -322 42 l-60 -14 -100 100 c-55 54 -103 99 -106 99
-3 0 -14 -9 -24 -20z m462 -225 c50 -21 72 -42 94 -90 23 -49 24 -94 4 -142
l-15 -36 -33 31 c-27 27 -32 38 -29 67 3 28 -1 40 -27 66 -26 26 -38 30 -66
27 -29 -3 -40 2 -67 29 l-31 33 34 14 c44 20 91 20 136 1z m260 -139 l24 -29
-28 -29 c-15 -17 -47 -43 -70 -59 l-42 -29 14 41 c19 53 19 110 0 156 -8 19
-15 37 -15 40 0 9 94 -64 117 -91z"/>
<path d="M131 565 c-39 -37 -71 -75 -71 -85 0 -27 132 -146 200 -180 102 -51
205 -71 289 -54 l32 7 -22 23 c-17 18 -33 24 -68 24 -51 0 -116 26 -143 56
-27 31 -48 90 -48 137 0 31 -6 49 -20 62 -19 17 -20 17 -30 -9 -14 -39 -12
-101 4 -141 8 -19 11 -35 6 -35 -13 0 -130 99 -130 110 0 4 26 31 58 59 l57
50 -21 22 -22 21 -71 -67z"/>
</g>
</svg>
