<?xml version="1.0" standalone="no"?>
<!DOCTYPE svg PUBLIC "-//W3C//DTD SVG 20010904//EN"
 "http://www.w3.org/TR/2001/REC-SVG-20010904/DTD/svg10.dtd">
<svg version="1.0" xmlns="http://www.w3.org/2000/svg"
 width="48.000000pt" height="48.000000pt" viewBox="0 0 48.000000 48.000000"
 preserveAspectRatio="xMidYMid meet">

<g transform="translate(0.000000,48.000000) scale(0.100000,-0.100000)"
fill="#c5669a" stroke="none">
<path d="M188 466 c-108 -29 -180 -119 -180 -226 0 -69 41 -153 93 -187 149
-98 329 -27 368 146 21 93 -33 203 -121 244 -69 33 -103 37 -160 23z m172 -51
c37 -19 45 -46 25 -89 -31 -64 -142 -98 -181 -55 -18 20 -18 20 9 14 41 -11
92 3 121 32 33 32 33 50 1 65 -54 24 -205 -53 -205 -105 0 -11 14 -36 32 -54
26 -27 40 -33 73 -33 52 0 81 -26 71 -65 -4 -14 -13 -25 -21 -25 -13 0 -13 3
-3 20 15 23 6 34 -34 44 -26 6 -28 4 -28 -22 0 -56 -71 -110 -106 -81 -25 20
-16 56 20 86 l35 27 -39 33 c-21 19 -42 42 -45 53 -15 47 56 120 148 151 64
22 90 23 127 4z"/>
<path d="M162 135 c-21 -16 -31 -45 -14 -45 14 0 44 38 40 50 -2 6 -11 5 -26
-5z"/>
</g>
</svg>
