<?xml version="1.0" standalone="no"?>
<!DOCTYPE svg PUBLIC "-//W3C//DTD SVG 20010904//EN"
 "http://www.w3.org/TR/2001/REC-SVG-20010904/DTD/svg10.dtd">
<svg version="1.0" xmlns="http://www.w3.org/2000/svg"
 width="96.000000pt" height="96.000000pt" viewBox="0 0 96.000000 96.000000"
 preserveAspectRatio="xMidYMid meet">

<g transform="translate(0.000000,96.000000) scale(0.100000,-0.100000)"
fill="#000000" stroke="none">
<path d="M366 704 c-32 -8 -88 -30 -125 -49 -75 -40 -216 -154 -216 -175 0
-24 147 -139 230 -180 150 -73 285 -77 431 -10 70 32 179 108 228 159 l30 31
-30 31 c-16 17 -56 51 -89 76 -154 116 -304 154 -459 117z m209 -58 c75 -20
93 -32 105 -74 20 -75 6 -143 -43 -199 -101 -115 -283 -88 -348 52 -31 68 -19
174 24 197 68 36 179 47 262 24z m-359 -144 c0 -45 6 -78 18 -101 l19 -35 -29
18 c-46 30 -114 87 -114 96 0 6 97 90 104 90 0 0 1 -30 2 -68z m599 13 l40
-35 -43 -38 c-23 -21 -56 -46 -73 -56 l-31 -18 18 33 c12 22 18 57 18 100 1
76 2 76 71 14z"/>
<path d="M419 571 c-20 -20 -29 -39 -29 -61 0 -43 47 -90 90 -90 43 0 90 47
90 90 0 43 -47 90 -90 90 -22 0 -41 -9 -61 -29z"/>
</g>
</svg>
